# xmcd CD database file
#
# Track frame offsets:
#	150
#	52113
#	80545
#	107605
#	128444
#	152252
#	186673
#	208788
#	233331
#	254200
#	282491
#	307408
#
# Disc length: 4460 seconds
#
# Revision: 0
# Processed by: cddbd v1.5PL3 Copyright (c) Steve Scherf et al.
# Submitted via: CDex 1.50beta9
#
DISCID=ae116a0c
DTITLE=Evans, Bill - Escape
DYEAR=1900
DGENRE=Jazz
TTITLE0=Swing Hop
TTITLE1=Escape
TTITLE2=Reality
TTITLE3=The Sunday After
TTITLE4=Rattletrap
TTITLE5=Flash in dreamland
TTITLE6=Coravilas
TTITLE7=Easilee
TTITLE8=Undercover
TTITLE9=La Di Da
TTITLE10=Armsakimbo
TTITLE11=Aftermath
EXTD=
EXTT0=
EXTT1=
EXTT2=
EXTT3=
EXTT4=
EXTT5=
EXTT6=
EXTT7=
EXTT8=
EXTT9=
EXTT10=
EXTT11=
PLAYORDER=
